<svg width="518" height="424" viewBox="0 0 518 424" fill="none" xmlns="http://www.w3.org/2000/svg">
<g clip-path="url(#clip0_103_50)">
<path d="M489.672 34.1188H433.825V9.9375C433.825 7.30191 432.546 4.77427 430.269 2.91063C427.992 1.04698 424.904 0 421.684 0C418.464 0 415.376 1.04698 413.1 2.91063C410.823 4.77427 409.544 7.30191 409.544 9.9375V34.1188H325.369V9.9375C325.369 7.30191 324.09 4.77427 321.813 2.91063C319.536 1.04698 316.448 0 313.228 0C310.008 0 306.92 1.04698 304.643 2.91063C302.367 4.77427 301.088 7.30191 301.088 9.9375V34.1188H216.912V9.9375C216.912 7.30191 215.633 4.77427 213.357 2.91063C211.08 1.04698 207.992 0 204.772 0C201.552 0 198.464 1.04698 196.187 2.91063C193.91 4.77427 192.631 7.30191 192.631 9.9375V34.1188H108.456V9.9375C108.456 7.30191 107.177 4.77427 104.9 2.91063C102.624 1.04698 99.5355 0 96.3156 0C93.0957 0 90.0077 1.04698 87.7309 2.91063C85.4541 4.77427 84.175 7.30191 84.175 9.9375V34.1188H28.3281C20.815 34.1188 13.6097 36.5617 8.29712 40.9102C2.98456 45.2587 0 51.1565 0 57.3062L0 400.812C0 406.962 2.98456 412.86 8.29712 417.209C13.6097 421.557 20.815 424 28.3281 424H384.453C385.255 423.998 386.055 423.932 386.841 423.801L387.893 423.536C388.744 423.382 389.553 423.101 390.281 422.708L391.211 422.311C391.881 421.943 392.505 421.521 393.073 421.052L514.479 321.677C515.052 321.212 515.568 320.702 516.017 320.153C516.017 319.921 516.3 319.689 516.462 319.458C516.946 318.851 517.289 318.178 517.474 317.47C517.474 317.172 517.717 316.907 517.798 316.576C517.938 315.953 518.006 315.321 518 314.688V57.3062C518 51.1565 515.015 45.2587 509.703 40.9102C504.39 36.5617 497.185 34.1188 489.672 34.1188ZM396.594 324.625H476.56L396.594 390.08V324.625ZM28.3281 53.9937H84.175V78.175C84.175 80.8106 85.4541 83.3382 87.7309 85.2019C90.0077 87.0655 93.0957 88.1125 96.3156 88.1125C99.5355 88.1125 102.624 87.0655 104.9 85.2019C107.177 83.3382 108.456 80.8106 108.456 78.175V53.9937H192.631V78.175C192.631 80.8106 193.91 83.3382 196.187 85.2019C198.464 87.0655 201.552 88.1125 204.772 88.1125C207.992 88.1125 211.08 87.0655 213.357 85.2019C215.633 83.3382 216.912 80.8106 216.912 78.175V53.9937H301.088V78.175C301.088 80.8106 302.367 83.3382 304.643 85.2019C306.92 87.0655 310.008 88.1125 313.228 88.1125C316.448 88.1125 319.536 87.0655 321.813 85.2019C324.09 83.3382 325.369 80.8106 325.369 78.175V53.9937H409.544V78.175C409.544 80.8106 410.823 83.3382 413.1 85.2019C415.376 87.0655 418.464 88.1125 421.684 88.1125C424.904 88.1125 427.992 87.0655 430.269 85.2019C432.546 83.3382 433.825 80.8106 433.825 78.175V53.9937H489.672C490.745 53.9937 491.775 54.3427 492.533 54.964C493.292 55.5852 493.719 56.4277 493.719 57.3062V104.675H24.2812V57.3062C24.2812 56.4277 24.7076 55.5852 25.4666 54.964C26.2255 54.3427 27.2548 53.9937 28.3281 53.9937ZM24.2812 400.812V124.55H493.719V304.75H384.453C381.233 304.75 378.145 305.797 375.868 307.661C373.592 309.524 372.312 312.052 372.312 314.688V404.125H28.3281C27.2548 404.125 26.2255 403.776 25.4666 403.155C24.7076 402.534 24.2812 401.691 24.2812 400.812Z" fill="black"/>
<path d="M284.783 274.582L275.419 316.135L265.653 313.658L275.017 272.105L284.783 274.582ZM370.128 237.91L370.209 227.239L329.967 226.933L329.886 237.604L370.128 237.91ZM335.967 302.627L343.856 295.983L318.806 262.605L310.917 269.25L335.967 302.627ZM275.941 192.217L285.743 189.889L277.012 148.199L267.209 150.527L275.941 192.217ZM192.924 386.128L132.534 385.669C85.2432 385.309 47.3089 344.403 47.6909 294.177C47.951 259.986 63.308 225.91 104.737 201.642C164.387 167.959 203.972 123.34 223.956 144.89C237.94 159.97 223.663 183.383 205.406 204.587L294.938 205.268C309.036 205.375 319.993 217.191 319.879 232.164C319.766 247.136 308.629 258.784 294.531 258.677L244.242 258.295C247.208 262.563 249.219 267.942 249.17 274.367C249.089 285.038 242.966 294.601 232.886 298.826C236.896 304.22 238.846 310.604 238.797 317.029C238.683 332.002 227.547 343.65 213.449 343.543C216.415 347.811 218.426 353.19 218.377 359.615C218.158 374.587 207.022 386.235 192.924 386.128ZM193.005 375.457C201.054 375.518 208.16 368.086 208.225 359.538C208.29 350.99 201.298 343.451 193.249 343.39L188.199 343.351L188.28 332.68L213.425 332.871C221.474 332.932 228.58 325.5 228.645 316.952C228.71 308.404 221.718 300.865 213.669 300.804L198.572 300.689L198.653 290.018L223.798 290.209C231.846 290.27 238.952 282.838 239.017 274.29C239.082 265.742 232.09 258.203 224.042 258.142L188.849 257.874L188.931 247.203L294.613 248.007C302.661 248.068 309.767 240.635 309.832 232.087C309.897 223.54 302.905 216 294.857 215.939L181.179 215.074C203.496 192.784 227.861 164.14 216.85 152.323C205.885 141.568 175.462 171.228 108.767 211.338C79.4253 230.335 58.1521 253.695 57.8431 294.311C57.51 338.11 93.4775 374.7 132.668 374.998L170.911 375.289L193.005 375.457ZM319.101 203.049L344.656 170.056L336.869 163.293L311.314 196.286L319.101 203.049Z" fill="black"/>
</g>
<defs>
<clipPath id="clip0_103_50">
<rect width="518" height="424" fill="white"/>
</clipPath>
</defs>
</svg>
